<?xml version="1.0" encoding="utf-8"?>
<!-- Generator: Adobe Illustrator 25.4.1, SVG Export Plug-In . SVG Version: 6.00 Build 0)  -->
<svg version="1.1" id="Layer_1" xmlns="http://www.w3.org/2000/svg" xmlns:xlink="http://www.w3.org/1999/xlink" x="0px" y="0px"
	 viewBox="0 0 1000 1062.5" style="enable-background:new 0 0 1000 1062.5;" xml:space="preserve">
<style type="text/css">
	.st0{fill:#FCC6BD;}
	.st1{fill:#3D30D7;}
</style>
<g>
	<path class="st0" d="M625.2,794.8c-79.5,45.2-166.4,75.6-254.7,75.7c-1.1,0-2.3,0-3.4,0c-88.6-0.8-192.4-35.3-210.3-129.8
		c-4-21.4-2.6-43.7,3.3-65.1c22.5-81.1,76.9-152.3,142.3-208.4c99.7-85.5,218.4-164,348.8-194.5c92.6-21.7,235.2-25.4,283.3,76.5
		c51.9,110-41,224.6-115.2,296.8C763.8,700.1,697.6,753.6,625.2,794.8z"/>
	<g>
		
			<ellipse transform="matrix(0.7071 -0.7071 0.7071 0.7071 -221.3734 499.8102)" class="st1" cx="492.6" cy="517.1" rx="56.5" ry="56.5"/>
		<path class="st1" d="M920,715.5c0-0.1,0-0.2,0-0.3c-1,5.1-0.4,2.9-0.1,1.1c0-0.2,0.1-0.4,0.1-0.6C920,715.6,920,715.5,920,715.5z"
			/>
		<path class="st1" d="M629.4,106.1c0,0-0.1-0.1-0.1-0.1C632.7,110.6,630.4,107.2,629.4,106.1z"/>
		<path class="st1" d="M847.4,529.4c-6.9,7.7-14.2,15.5-22.1,22.2c-7.1,6.1-6.7,19,0,25.2c7.6,6.9,17.6,6.5,25.2,0
			c8.9-7.6,17-16.4,24.7-25.1c19.4-22.1,36.5-46.4,50.1-72.5c14-26.8,24.3-55.1,30.2-84.5c25.4-5.5,44.5-28.1,44.5-55.2
			c0-28.4-20.9-51.8-48.1-55.9c-1.2-3.4-2.5-6.8-3.9-10.2c-12.1-28.7-32.8-52.5-58.6-70c-31.4-21.3-69.1-31.1-106.4-35
			c-25.9-2.7-52.1-2.2-78,0.2c-6.6-16.2-14.2-32-22.8-47.1C665,91.3,642.9,63,615.3,41.6c-27.9-21.7-59.7-35.8-94.9-40.3
			C465.4-5.5,411,13.9,369.3,49.6c-36.6,31.3-63,73-82.9,117.1c-25-0.8-50,0.1-74.7,2.8c-53.4,5.9-110.6,21.1-148,62.2
			C20.6,279,16.8,347.6,33,406.9c10.6,38.9,29.3,75.1,52.1,108.3c-0.5,0.7-1,1.5-1.5,2.2c-8,12.1-15.5,24.6-22.2,37.5
			c-1.6-0.1-3.2-0.2-4.9-0.2C25.3,554.8,0,580.1,0,611.4c0,20.3,10.7,38.1,26.8,48.1c-1.2,8.5-2.1,17.1-2.5,25.7
			c-1.4,28.4,4.2,55.8,18.7,80.5c15.9,27,40.2,48.6,67.4,63.8c53.1,29.8,115.2,37.6,175.8,35.3c5.3,11.4,11,22.6,17.2,33.6
			c20.9,37.2,48.2,72.3,82.6,97.5c-0.6,3.2-0.9,6.5-0.9,9.9c0,31.2,25.3,56.5,56.5,56.5c21,0,39.3-11.4,49-28.4
			c45.5,2.1,91.7-12,128.2-39.2c44.4-33,75.6-79.5,97.8-129.7c63.3,5,132.1,1.5,183.6-39.9c34.2-27.6,51.1-69.6,55.6-112.3
			c2.1-20,1.7-41-2.3-60.8c-1.9-9.1-13.2-15.2-21.9-12.4c-9.7,3.1-14.4,12.1-12.4,21.9c0.2,0.9,0.3,1.8,0.5,2.7
			c0,0.9,0.3,1.9,0.4,2.7c0.3,2.3,0.5,4.7,0.7,7c1.1,13.6,0.9,27.4-0.7,41c0-0.2,0.1-0.4,0.1-0.7c-0.1,0.4-0.1,0.8-0.2,1.1
			c0,0.2-0.1,0.4-0.1,0.6c-0.1,0.5-0.1,0.9-0.2,1.4c-0.3,2.1-0.7,4.3-1.1,6.4c-0.8,4.4-1.8,8.8-3,13.1c-1.2,4.3-2.5,8.5-4,12.6
			c-0.4,1.1-0.8,2.2-1.3,3.3c-0.1,0.2-0.2,0.6-0.4,0.9c0.2-0.3,0.3-0.7,0.6-1.2c-1,2.2-1.9,4.4-3,6.6c-2.2,4.5-4.6,8.8-7.2,13
			c-1.2,1.9-2.5,3.8-3.8,5.7c-0.6,0.9-1.3,1.7-1.9,2.6c-0.2,0.3-0.5,0.6-0.7,0.9c-3.3,4-6.8,7.9-10.6,11.5c-2,1.9-4.1,3.8-6.2,5.6
			c-0.8,0.7-1.6,1.3-2.4,1.9c-0.5,0.4-1,0.7-1.5,1.1c-4.9,3.5-10,6.7-15.3,9.6c-2.5,1.4-5.1,2.7-7.7,3.9c-1.1,0.5-2.2,1-3.4,1.5
			c-1,0.3-2,0.8-2.9,1.2c-13.9,5.4-28.4,8.9-43,11.1c-0.7,0.1-1.8,0.4-2.5,0.4c0,0,0,0,0,0c-0.1,0-0.2,0-0.3,0
			c-1.9,0.2-3.9,0.4-5.8,0.6c-4.7,0.5-9.4,0.8-14.2,1.1c-8.9,0.5-17.8,0.5-26.6,0.3c-7-0.1-13.9-0.4-20.9-0.8
			c22.1-61.4,33.6-127.6,34.4-192.8c0.7-59.2-9.4-118.3-30.5-173.4c5.6-34.9,8.1-70.3,7.5-105.6c-0.8-43-6.1-86.1-16.6-127.8
			c-2.3-9.3-4.9-18.6-7.8-27.8c21.3-1.4,42.8-1.5,64,0.7c1.9,0.2,3.8,0.4,5.7,0.6c0,0,1.2,0.1,1.7,0.2c0,0,0,0,0.1,0
			c0.1,0,0.1,0,0.2,0c-0.1,0-0.1,0-0.1,0c1.4,0.2,2.9,0.4,4.3,0.7c4.8,0.8,9.5,1.6,14.2,2.7c8.8,1.9,17.6,4.3,26.1,7.2
			c3.5,1.2,7,2.6,10.5,4c0,0,0,0,0,0c0.9,0.5,1.9,0.8,2.8,1.3c2,0.9,4,1.9,6,2.9c6.7,3.4,13.3,7.2,19.5,11.5c1.5,1.1,3,2.1,4.5,3.2
			c0.2,0.2,0.6,0.5,1,0.8c0.2,0.1,0.3,0.2,0.5,0.3c0.1,0.1,0.2,0.1,0.3,0.1c-0.1,0-0.1,0-0.1-0.1c2.8,2.3,5.5,4.6,8.1,7.1
			c5,4.7,9,10.5,13.9,15.2c0.2,0.2,0.3,0.4,0.5,0.6c1,1.4,2,2.8,2.9,4.2c1.9,2.8,3.6,5.6,5.3,8.6c1.7,2.9,3.2,5.8,4.6,8.8
			c0.6,1.2,1.1,2.5,1.7,3.8c0.3,0.7,0.5,1.3,0.8,2c0,0.1,0,0.1,0.1,0.2c-17.6,9.6-29.6,28.2-29.6,49.7c0,22.9,13.6,42.6,33.2,51.5
			c-2.7,12.2-6.1,24.2-10.3,35.9c-1.4,4-3,7.9-4.6,11.9c-0.1,0.1-0.1,0.2-0.1,0.3c-0.4,0.9-0.8,1.8-1.2,2.7c-0.9,2-1.8,3.9-2.7,5.9
			c-3.5,7.6-7.3,15-11.4,22.2c-7,12.4-14.7,24.4-23.1,35.9c-0.9,1.2-1.8,2.4-2.7,3.7c-0.5,0.7-1,1.3-1.5,2c-1.7,2.3,0.9-1.1,1-1.3
			c-1.6,2.6-3.9,4.9-5.8,7.3C854.4,521.5,850.9,525.5,847.4,529.4z M701.6,295.2c0,0.1,0,0.2,0,0.2c0.3,2.5,0.6,4.9,0.9,7.4
			c2.4,20.7,3.7,41.5,3.8,62.3c0.1,12.7-0.2,25.4-1,38c-30.7-53.3-72.8-99.4-122-136.4c-12.7-9.6-26-18.4-39.6-26.7
			c20-6.6,40.2-12.6,60.6-17.8c15-3.8,30.1-7.2,45.2-10.1c7.1-1.4,14.3-2.6,21.4-3.8c3.4-0.5,6.8-1.1,10.2-1.5
			c4.4,13.3,8.2,26.8,11.4,40.4c2.3,9.7,4.3,19.5,6,29.3c0.9,4.9,1.7,9.9,2.4,14.8C701.2,292.7,701.4,293.9,701.6,295.2z
			 M721.4,546.7c1.6,8.3,3,16.7,4.2,25.1c0,0.1,0,0.1,0,0.2c0,0.1,0,0.3,0.1,0.5c0.1,0.9,0.2,1.8,0.3,2.7c0.3,2.3,0.5,4.5,0.8,6.8
			c0.5,4.5,0.9,9.1,1.2,13.6c1.3,17,1.6,34.1,1.1,51.2c-0.4,15.3-1.5,30.5-3.2,45.6c-0.4,3.8-0.9,7.5-1.3,11.3c0,0.2,0,0.5-0.1,0.7
			c-0.1,0.4-0.1,0.8-0.2,1.1c-0.3,2.4-0.7,4.8-1,7.2c-1.2,7.9-2.5,15.7-4,23.5c-6,31-14.3,61.7-25.4,91.3c-1.5-0.2-3-0.3-4.5-0.5
			c-1.9-0.2-3.8-0.4-5.7-0.7c-0.2,0-0.5-0.1-0.7-0.1c-1.5-0.2-3-0.4-4.6-0.7c-8.3-1.2-16.6-2.6-24.9-4.1c-17.8-3.3-35.5-7.2-53-11.7
			c-21.6-5.5-42.9-11.9-64-19.1c24.7-16.2,47.6-35.1,68.2-56.2c32.2-32.9,59-71.2,79.5-112.3c14-28.1,25.5-57.5,34.3-87.6
			C719.7,538.5,720.6,542.5,721.4,546.7z M340.1,824.8c-0.6,0.1-1.3,0.2-1.9,0.2c-3.5,0.4-7.1,0.9-10.7,1.2
			c-6.2,0.7-12.4,1.2-18.6,1.7c-1-2.5-2-5.1-3-7.6c-6.7-17.6-12.6-35.4-17.8-53.5c-5.4-19-10.1-38.3-14-57.7
			c-0.9-4.5-1.8-9-2.6-13.6c6.1,4.2,12.2,8.4,18.4,12.6c51.1,34,105.4,63.2,161.7,87.6c-1.3,0.4-2.6,0.8-3.2,1
			c-3.1,1.2-6.1,2.4-9.2,3.5c-11.7,4.3-23.7,8.2-35.7,11.5c-12.9,3.6-26,6.6-39.1,9.1c-6.6,1.3-13.3,2.4-20,3.4
			C343,824.3,341.5,824.6,340.1,824.8z M130.9,518.1c-0.7-1-1.5-2-2.2-3c0.8-1.1,1.7-2.3,2.5-3.4c0.6-0.8,1.2-1.5,1.8-2.3
			c1.9-2.5-0.5,0.5-0.7,0.8c0.8-1.6,2.5-3.2,3.6-4.6c2.4-3.1,4.9-6.1,7.4-9.1c10.2-12.3,21-24.1,32.2-35.5
			c15.8-16.2,32.5-31.5,49.8-46c-0.5,4.9-0.9,9.8-1.3,14.7c-5.2,61.6-4.9,123.7,0.8,185.2c-2-1.7-4-3.4-6-5.2
			c-25.3-22.1-49.3-45.8-71.2-71.3c-5.1-6-10.1-12.1-15-18.2C132,519.4,131.5,518.7,130.9,518.1z M305.6,213
			c1.2-3.1,2.4-6.3,3.6-9.4c3.4,0.2,6.7,0.5,10.1,0.8c4.1,0.4,8.2,0.8,12.3,1.2c2.3,0.3,4.5,0.5,6.8,0.8c0.9,0.1,1.8,0.2,2.7,0.3
			c-4.8-0.8,0.3,0,1.3,0.2c17.5,2.5,34.9,5.9,52.1,10.1c16.9,4.2,33.5,9.2,49.8,15c3.4,1.2,6.9,2.4,10.4,3.7
			c-18.2,7.8-36.2,16-54,24.7c-44.5,21.8-87.5,46.6-128.4,74.6c1.4-7.3,2.8-14.7,4.4-22C284.1,279.2,293.4,245.6,305.6,213z
			 M532.1,274.7c7.2,4.5,14.2,9.1,21.1,13.9c3.3,2.3,6.5,4.6,9.7,7c1.5,1.1,3,2.3,4.5,3.4c0.1,0.1,0.3,0.2,0.4,0.3
			c1,0.7,2,1.5,2.9,2.3c25.8,20.4,49.4,43.7,70,69.4c1.1,1.4,2.2,2.9,3.4,4.3c0.5,0.7,1,1.3,1.5,2c2.6,3.5,5.2,7,7.7,10.6
			c4.7,6.7,9.2,13.4,13.5,20.4c8.9,14.3,16.9,29.1,24.1,44.3c1.6,3.5,3.2,6.9,4.7,10.4c0.4,0.8,0.7,1.7,1.1,2.5
			c0,0.1,0.1,0.2,0.1,0.3c0.3,0.7,0.6,1.4,0.9,2.1c-1.3,7-2.6,13.9-4.2,20.9c-4.7,21.2-10.5,42.1-17.7,62.5
			c-1.7,4.9-3.5,9.8-5.4,14.7c-1,2.6-2,5.1-3,7.7c-0.5,1.1-0.9,2.3-1.4,3.4c-0.1,0.3-0.2,0.5-0.3,0.7c-4.3,10-8.9,19.8-13.8,29.5
			c-9.9,19.4-21.1,38.1-33.7,55.8c-3.1,4.4-6.5,8.6-9.6,13c0.3-0.4,0.5-0.7,0.7-1c-0.4,0.5-0.8,1.1-1,1.4c-0.9,1.1-1.7,2.2-2.6,3.3
			c-1.7,2.2-3.5,4.3-5.3,6.4c-7.1,8.4-14.5,16.6-22.2,24.4c-7.8,7.9-16,15.5-24.4,22.7c-4.3,3.7-8.8,7.3-13.2,10.8
			c-1.1,0.8-2.2,1.6-3.2,2.4c-2.3,1.7-4.6,3.4-7,5.1c-11.7,8.4-23.9,16.1-36.4,23.1c-3.4-1.3-6.7-2.7-10.1-4
			c-2.2-0.9-4.4-1.8-6.6-2.7c-0.9-0.4-1.7-0.7-2.6-1.1c-0.2-0.1-0.4-0.2-0.6-0.2c-0.2-0.1-0.6-0.3-1-0.4c-8.5-3.6-17-7.4-25.4-11.2
			c-17.3-7.9-34.3-16.3-51.1-25.2c-32.9-17.3-64.8-36.4-95.6-57.3c-12.6-8.5-25-17.4-37.2-26.6c-9.4-76.3-10.5-153.6-3-230.1
			c0.9-8.8,1.8-17.6,2.9-26.4c0.2-1.9,0.5-3.7,0.7-5.6c0.6-0.5,1.2-0.9,1.9-1.4c7-5.1,14-10.1,21.1-15c14.2-9.8,28.6-19.1,43.3-28.1
			c29.5-18.1,59.9-34.7,91-49.8c15.4-7.5,31-14.6,46.8-21.3c0.8-0.3,1.6-0.7,2.4-1c0,0,0.1,0,0.1-0.1c0.1,0,0.2-0.1,0.4-0.2
			c1.8-0.7,3.6-1.5,5.4-2.2c4.2-1.7,8.3-3.4,12.5-5.1c3.4-1.3,6.7-2.6,10.1-3.9C510.5,261.8,521.4,268,532.1,274.7z M669.9,176.4
			C670.6,177.9,671.7,180.8,669.9,176.4L669.9,176.4z M478.5,36.7C479.4,36.6,479.1,36.7,478.5,36.7L478.5,36.7z M360.4,110.7
			c0.2-0.3,0.4-0.6,0.7-0.8C360.7,110.4,358.6,112.9,360.4,110.7z M346.5,130.6c4-6.2,8.2-12.3,12.6-18.2c0.5-0.7,1.7-1.8,2-2.6
			c0.9-1.2,1.8-2.3,2.8-3.4c2.3-2.8,4.7-5.6,7.1-8.4c9.3-10.5,19.4-19.7,30.1-28.6c0.4-0.3,0.8-0.6,1.2-0.9c1.4-1,2.8-2,4.2-3
			c2.8-2,5.7-3.9,8.6-5.7c5.8-3.6,11.8-6.9,17.9-9.8c1.5-0.7,3.1-1.4,4.6-2.1c0.6-0.3,1.3-0.5,1.9-0.8c-0.2,0.1-0.4,0.2-0.6,0.3
			c3.2-1.3,6.5-2.5,9.8-3.6c6.4-2.1,12.9-3.8,19.5-5.2c2.9-0.6,5.8-1.1,8.7-1.5c0.9-0.1,1.9-0.3,2.8-0.4c1.8-0.2,3.6-0.4,5.4-0.5
			c6.1-0.5,12.3-0.6,18.5-0.5c3.9,0.1,7.9,0.3,11.8,0.7c1.3,0.1,2.7,0.3,4,0.4c0.9,0.1,1.8,0.3,2.8,0.4c7.5,1.3,14.9,3.1,22.2,5.4
			c3.5,1.1,7,2.4,10.4,3.7c0.4,0.2,0.9,0.4,1.3,0.5c1.7,0.8,3.4,1.5,5.1,2.3c6.9,3.3,13.5,7.1,19.9,11.2c3.2,2.1,6.3,4.2,9.3,6.4
			c0.5,0.4,1.1,0.8,1.6,1.2c1.4,1.1,2.8,2.3,4.2,3.4c12.2,10.2,23.3,21.8,33.2,34.3c-0.1-0.2-0.2-0.3-0.3-0.5
			c0.6,0.9,1.3,1.7,1.9,2.5c1.3,1.7,2.5,3.4,3.8,5.1c2.5,3.5,4.9,7,7.3,10.6c4.7,7.2,9.1,14.6,13.2,22.1c4.3,7.9,8.3,15.9,12,24.1
			c0.5,1.1,0.9,2.1,1.4,3.2c-25.1,3.8-50,8.9-74.7,15.2c-31.3,8-62.2,17.8-92.5,29.1c-34.8-16.5-71.5-28.9-108.9-37.3
			c-22.2-4.9-44.9-8.6-67.7-10.9C331.2,155.9,338.4,143,346.5,130.6z M96.3,466.1c-3.5-6.2-6.8-12.4-10-18.8
			c-1.6-3.2-3.1-6.4-4.6-9.7c-0.6-1.3-1.2-2.6-1.7-3.9c-0.4-0.9-0.7-1.7-1.1-2.6c-5-12.3-9.3-24.8-12.6-37.6
			c-1.6-6.4-3-12.8-4.1-19.2c-0.3-1.6-0.5-3.2-0.8-4.8c0-0.3-0.1-0.6-0.1-0.9c-0.3-3.2-0.7-6.5-1-9.7c-0.5-6.5-0.7-13-0.6-19.6
			c0.1-4.2,0.3-8.3,0.6-12.5c0.2-2.1,0.4-4.2,0.6-6.3c0-0.2,0-0.5,0-0.7c0.1-0.6,0.3-1.2,0.4-1.8c1.2-7.6,3-15.1,5.4-22.5
			c1-3.1,2.2-6.1,3.3-9.1c0.2-0.5,0.5-1.1,0.7-1.6c0.9-1.9,1.8-3.8,2.8-5.6c3.1-5.8,6.6-11.3,10.5-16.6c0,0,0.1-0.1,0.1-0.1
			c0.1-0.1,0.3-0.3,0.5-0.5c1-1.2,2.1-2.5,3.2-3.7c2.1-2.4,4.4-4.8,6.7-7c2.3-2.2,4.7-4.4,7.1-6.5c1-0.8,2-1.6,3-2.5
			c0.6-0.4,1.1-0.8,1.7-1.2c5.2-3.7,10.6-7.2,16.2-10.3c5.3-3,10.8-5.5,16.4-8c0.4-0.1,0.7-0.3,1.1-0.4c1.5-0.6,3-1.2,4.5-1.7
			c3-1.1,6-2.2,9.1-3.2c12.1-4,24.4-7,36.9-9.3c2.7-0.5,5.5-1,8.3-1.4c1.5-0.2,3-0.5,4.6-0.7c0.4-0.1,0.9-0.1,1.3-0.2
			c5.7-0.7,11.3-1.3,17-1.8c16.8-1.5,33.6-2,50.5-1.9c-1.5,3.9-2.9,7.8-4.2,11.6c-17.3,48.8-28.8,99.6-36.2,151
			c-4.1,3.1-8.1,6.3-12.2,9.5c-41.1,32.5-79.4,69-111.8,110.3C103.6,478.5,99.9,472.4,96.3,466.1z M225.8,827.6
			c-2.7-0.3-5.3-0.6-8-0.9c-0.6-0.1-1.1-0.1-1.7-0.2c-0.5-0.1-1.7-0.2-2.2-0.3c-5.3-0.8-10.6-1.7-15.8-2.7
			c-9.2-1.8-18.4-4.1-27.3-6.8c-4.2-1.3-8.3-2.6-12.4-4.1c-2.1-0.8-4.2-1.5-6.2-2.3c-0.8-0.3-1.6-0.6-2.4-1
			c-0.9-0.3-1.6-0.6-1.9-0.7c-7.3-2.7-14.4-6.8-21-10.6c-6.5-3.7-12.6-7.8-18.7-12.2c0,0,0,0.1,0.1,0.1c0,0-0.1-0.1-0.1-0.1
			c-0.3-0.2-0.6-0.4-0.8-0.6c-0.4-0.3-0.6-0.5-0.7-0.6c-0.2-0.2-0.5-0.3-0.6-0.4c-1.3-1-2.6-2.1-3.8-3.2c-2.9-2.5-5.7-5-8.3-7.7
			c-2.4-2.3-4.7-4.8-6.9-7.2c-1.1-1.3-2.3-2.6-3.4-3.9c-0.4-0.5-0.7-0.9-1.1-1.4c0,0.1,0.1,0.1,0.1,0.2c0-0.1-0.1-0.1-0.1-0.2
			c-0.1-0.1-0.1-0.1-0.2-0.2c-1.7-2.1-0.9-1.5,0,0c-3.2-5.5-7.4-10.5-10.5-16.1c-1.5-2.7-2.8-5.4-4.1-8.1c-0.3-0.6-0.5-1.3-0.8-1.9
			c-0.5-1.3-1-2.6-1.5-3.9c-2-5.6-3.6-11.4-4.6-17.3c-0.2-1.1-0.4-2.2-0.5-3.2c-0.1-0.5-0.1-1-0.2-1.5c-0.3-3-0.5-6-0.5-9
			c-0.1-6.8,0.2-13.6,0.7-20.4c0.2-3.1,0.5-6.2,0.9-9.2c0.1-0.7,0.2-1.4,0.3-2.1c28.9-2.5,51.7-26.7,51.7-56.3
			c0-16.8-7.3-31.8-18.9-42.2c0.2-0.4,0.4-0.8,0.6-1.2c4.1-7.5,8.4-14.9,12.9-22.2c5.8,7.3,11.8,14.5,17.9,21.5
			c31.5,36.2,67.2,68.8,105.2,98.3c0.5,3.3,1,6.7,1.5,10c7.9,52.1,20.1,104.4,39.1,153.9C256.1,829.7,240.9,829.1,225.8,827.6z
			 M522.8,997.2c-0.4,0-0.7,0.1-1.1,0.1C522.6,997.2,525.7,996.9,522.8,997.2z M563.8,985.9c-0.2,0.1-0.4,0.2-0.5,0.2
			C561.2,987.1,562.8,986.3,563.8,985.9z M602.6,962.9c-0.3,0.2-0.6,0.4-0.8,0.6C602.5,962.9,604.8,961.3,602.6,962.9z M650.8,911
			c-2.2,3.2-4.5,6.3-6.8,9.4c-0.4,0.5-0.8,1-1.1,1.5c-1.3,1.6-2.6,3.2-3.9,4.8c-4.8,5.8-9.8,11.5-15.1,16.9
			c-5.1,5.2-10.3,10.1-15.8,14.8c-1.3,1.1-2.5,2.1-3.8,3.2c-0.7,0.5-2,1.3-2.5,2c-2.6,2-5.3,3.9-8,5.7c-6,4.1-12.2,7.8-18.7,11.2
			c-3.1,1.6-6.2,3.1-9.3,4.5c-0.5,0.2-1,0.4-1.4,0.6c-1.9,0.4-4.1,1.7-5.9,2.4c-6.8,2.5-13.7,4.6-20.7,6.3c-3.5,0.8-7,1.6-10.5,2.2
			c-1.6,0.3-4.2,0.2-5.6,0.9c-0.7,0.1-1.5,0.2-2.2,0.3c-7.2,0.8-14.5,1.1-21.7,1c-3.6-27.8-27.3-49.2-56-49.2
			c-14.9,0-28.5,5.8-38.6,15.3c-0.2-0.2-0.4-0.4-0.8-0.6c-2.8-2.2-5.6-4.6-8.3-7c-5.5-4.9-10.8-10-15.9-15.4
			c-5.2-5.5-10.2-11.3-15-17.3c-0.5-0.6-1-1.2-1.5-1.8c0,0,0,0,0-0.1c-1-1.3-1.9-2.5-2.9-3.8c-2.5-3.4-4.9-6.8-7.3-10.3
			c-9.3-13.6-17.6-27.9-25.1-42.6c-0.6-1.2-1.2-2.4-1.8-3.7c1.4-0.1,2.8-0.3,4.2-0.4c55.6-6,109.7-19.9,160.2-44.1
			c2.6-1.2,5.1-2.5,7.6-3.8c0.1,0,0.2,0.1,0.4,0.1c58.9,22.3,120.2,38.9,182.7,47.3c-1.6,3.4-3.3,6.7-5,10.1
			C667.4,885,659.6,898.3,650.8,911z"/>
		<path class="st1" d="M909.9,753.9C908.3,757.3,909.2,755.4,909.9,753.9L909.9,753.9z"/>
		<path class="st1" d="M609.4,675.2C610.3,673.9,611.1,672.8,609.4,675.2L609.4,675.2z"/>
		<path class="st1" d="M438.8,47.3c-0.1,0-0.2,0.1-0.3,0.1C437.4,47.9,435.3,49,438.8,47.3z"/>
		<path class="st1" d="M106.6,784.5c0.5,0.4,1.2,0.8,1.5,1.2c0,0,0,0,0,0C107.5,784.6,106.3,784.1,106.6,784.5z"/>
		<path class="st1" d="M878.5,239.2c-0.2-0.1-0.3-0.2-0.5-0.3c-1.3-0.8-2.3-0.8,0.6,0.4c0,0,0,0,0,0
			C878.5,239.2,878.5,239.2,878.5,239.2z"/>
		<path class="st1" d="M82.4,760.7C82.4,760.7,82.4,760.7,82.4,760.7c0-0.1-0.1-0.1-0.1-0.2C82.4,760.5,82.4,760.6,82.4,760.7z"/>
		<path class="st1" d="M787.2,204.4c0,0,0.5,0.1,1.8,0.2c0,0,0,0,0,0C788.4,204.6,787.8,204.5,787.2,204.4z"/>
	</g>
</g>
</svg>
